<svg xmlns="http://www.w3.org/2000/svg" xmlns:xlink="http://www.w3.org/1999/xlink" width="500" zoomAndPan="magnify" viewBox="0 0 375 374.999991" height="500" preserveAspectRatio="xMidYMid meet" version="1.0"><defs><clipPath id="71c4d563a1"><path d="M 34.566406 34.566406 L 340.433594 34.566406 L 340.433594 340.433594 L 34.566406 340.433594 Z M 34.566406 34.566406 " clip-rule="nonzero"/></clipPath><clipPath id="c6eaa61d9e"><path d="M 187.5 34.566406 C 103.039062 34.566406 34.566406 103.039062 34.566406 187.5 C 34.566406 271.960938 103.039062 340.433594 187.5 340.433594 C 271.960938 340.433594 340.433594 271.960938 340.433594 187.5 C 340.433594 103.039062 271.960938 34.566406 187.5 34.566406 Z M 187.5 34.566406 " clip-rule="nonzero"/></clipPath><clipPath id="9cc42f5910"><path d="M 72.363281 72.363281 L 302.613281 72.363281 L 302.613281 302.613281 L 72.363281 302.613281 Z M 72.363281 72.363281 " clip-rule="nonzero"/></clipPath></defs><g clip-path="url(#71c4d563a1)"><g clip-path="url(#c6eaa61d9e)"><path fill="#3771ce" d="M 34.566406 34.566406 L 340.433594 34.566406 L 340.433594 340.433594 L 34.566406 340.433594 Z M 34.566406 34.566406 " fill-opacity="1" fill-rule="nonzero"/></g></g><g clip-path="url(#9cc42f5910)"><path fill="#ffffff" d="M 187.496094 72.363281 C 123.976562 72.363281 72.363281 123.976562 72.363281 187.496094 C 72.363281 251.015625 123.976562 302.625 187.496094 302.625 C 251.015625 302.625 302.625 251.015625 302.625 187.496094 C 302.625 184.089844 302.410156 180.8125 302.132812 177.644531 C 301.960938 175.738281 300.828125 174.046875 299.113281 173.191406 C 297.378906 172.332031 295.34375 172.441406 293.71875 173.46875 C 290.699219 175.394531 287.226562 176.53125 283.4375 176.53125 C 275.300781 176.53125 268.46875 171.496094 265.640625 164.429688 C 265.0625 162.972656 263.886719 161.839844 262.429688 161.304688 C 260.953125 160.769531 259.324219 160.875 257.933594 161.625 C 253.304688 164.128906 247.996094 165.566406 242.320312 165.566406 C 224.09375 165.566406 209.425781 150.894531 209.425781 132.671875 C 209.425781 126.996094 210.859375 121.683594 213.367188 117.058594 C 214.113281 115.667969 214.222656 114.039062 213.6875 112.5625 C 213.152344 111.105469 212.015625 109.925781 210.558594 109.347656 C 203.492188 106.523438 198.460938 99.691406 198.460938 91.554688 C 198.460938 87.761719 199.59375 84.292969 201.523438 81.273438 C 202.550781 79.644531 202.65625 77.613281 201.800781 75.875 C 200.945312 74.164062 199.253906 73.027344 197.347656 72.855469 C 194.175781 72.578125 190.902344 72.363281 187.496094 72.363281 Z M 258.765625 72.363281 C 252.707031 72.363281 247.800781 77.269531 247.800781 83.328125 C 247.800781 89.390625 252.707031 94.292969 258.765625 94.292969 C 264.828125 94.292969 269.730469 89.390625 269.730469 83.328125 C 269.730469 77.269531 264.828125 72.363281 258.765625 72.363281 Z M 187.496094 83.328125 C 188.289062 83.328125 189.101562 83.414062 189.894531 83.457031 C 189.058594 86.175781 187.496094 88.554688 187.496094 91.554688 C 187.496094 102.175781 193.726562 110.65625 202.078125 116.007812 C 199.9375 121.191406 198.460938 126.738281 198.460938 132.671875 C 198.460938 156.828125 218.164062 176.53125 242.320312 176.53125 C 248.25 176.53125 253.796875 175.054688 258.980469 172.910156 C 264.335938 181.261719 272.816406 187.496094 283.4375 187.496094 C 286.4375 187.496094 288.8125 185.933594 291.554688 185.097656 C 291.574219 185.890625 291.660156 186.703125 291.660156 187.496094 C 291.660156 245.082031 245.082031 291.660156 187.496094 291.660156 C 129.910156 291.660156 83.328125 245.082031 83.328125 187.496094 C 83.328125 129.910156 129.910156 83.328125 187.496094 83.328125 Z M 250.542969 116.222656 C 246.003906 116.222656 242.320312 119.90625 242.320312 124.449219 C 242.320312 128.988281 246.003906 132.671875 250.542969 132.671875 C 255.082031 132.671875 258.765625 128.988281 258.765625 124.449219 C 258.765625 119.90625 255.082031 116.222656 250.542969 116.222656 Z M 168.308594 132.671875 C 163.765625 132.671875 160.082031 136.355469 160.082031 140.894531 C 160.082031 145.433594 163.765625 149.117188 168.308594 149.117188 C 172.847656 149.117188 176.53125 145.433594 176.53125 140.894531 C 176.53125 136.355469 172.847656 132.671875 168.308594 132.671875 Z M 297.144531 132.671875 C 294.125 132.671875 291.660156 135.132812 291.660156 138.152344 C 291.660156 141.171875 294.125 143.636719 297.144531 143.636719 C 300.164062 143.636719 302.625 141.171875 302.625 138.152344 C 302.625 135.132812 300.164062 132.671875 297.144531 132.671875 Z M 132.671875 160.082031 C 123.589844 160.082031 116.222656 167.449219 116.222656 176.53125 C 116.222656 185.609375 123.589844 192.976562 132.671875 192.976562 C 141.75 192.976562 149.117188 185.609375 149.117188 176.53125 C 149.117188 167.449219 141.75 160.082031 132.671875 160.082031 Z M 184.753906 182.011719 C 180.214844 182.011719 176.53125 185.695312 176.53125 190.238281 C 176.53125 194.777344 180.214844 198.460938 184.753906 198.460938 C 189.292969 198.460938 192.976562 194.777344 192.976562 190.238281 C 192.976562 185.695312 189.292969 182.011719 184.753906 182.011719 Z M 143.636719 220.390625 C 137.574219 220.390625 132.671875 225.292969 132.671875 231.355469 C 132.671875 237.414062 137.574219 242.320312 143.636719 242.320312 C 149.695312 242.320312 154.601562 237.414062 154.601562 231.355469 C 154.601562 225.292969 149.695312 220.390625 143.636719 220.390625 Z M 217.648438 225.871094 C 210.089844 225.871094 203.941406 232.019531 203.941406 239.578125 C 203.941406 247.136719 210.089844 253.285156 217.648438 253.285156 C 225.207031 253.285156 231.355469 247.136719 231.355469 239.578125 C 231.355469 232.019531 225.207031 225.871094 217.648438 225.871094 Z M 217.648438 225.871094 " fill-opacity="1" fill-rule="nonzero"/></g></svg>